<svg xmlns="http://www.w3.org/2000/svg" xmlns:xlink="http://www.w3.org/1999/xlink" width="35" height="35" viewBox="0 0 35 35"><defs><clipPath id="a"><rect width="35" height="35" transform="translate(30 3674)" fill="#cfdd19"/></clipPath></defs><g transform="translate(-30 -3674)" clip-path="url(#a)"><g transform="translate(30 3679.162)"><path d="M4.381,23.042H1.2l-.116.348a1.243,1.243,0,0,0,.3,1.279l3.346,3.346a4.4,4.4,0,0,0,1.71,1.057l4.714,1.571a4.375,4.375,0,0,0,1.929.175L5.24,23.385A1.245,1.245,0,0,0,4.381,23.042Z" transform="translate(-0.128 -8.042)" fill="#cfdd19"/><path d="M23.361,15.434a1.256,1.256,0,0,0-.247-.3L18.242,10.8a1.247,1.247,0,0,0-.83-.316H15.238L13.4,11.95A2.494,2.494,0,0,1,9.7,8.725l.351-.583-2.683.335A7.477,7.477,0,0,1,5.1,8.414L.737,7.621a.611.611,0,0,0-.513.135A.617.617,0,0,0,0,8.236v11a.626.626,0,0,0,.625.625H4.253a2.49,2.49,0,0,1,1.719.685L16.06,30.105a2.487,2.487,0,0,0,2.27.621L15.741,27.1a.625.625,0,0,1,1.017-.726L19.636,30.4l2.682-.671-3.479-5.8a.625.625,0,1,1,1.072-.643l3.646,6.077a6.208,6.208,0,0,0,1.58-.89l1.143-.889-4.938-8.024a.625.625,0,1,1,1.064-.655l4.866,7.907.177-.137a2.507,2.507,0,0,0,.62-3.241Z" transform="translate(0 -6.113)" fill="#cfdd19"/><path d="M36.514,11.643a.625.625,0,0,0-.682-.622l-3.18.289a5.61,5.61,0,0,1-4.447-1.585l-1.9-1.332a1.881,1.881,0,0,0-.239-.142L26,8.209,24.315,7.074A6.85,6.85,0,0,0,20.472,5.9H15.017a1.248,1.248,0,0,0-1.04.557l-.669,1s0,.009,0,.013L12.289,9.156a1.23,1.23,0,0,0,.32,1.625,1.251,1.251,0,0,0,1.528-.023l1.77-1.411V8.4a.625.625,0,1,1,1.25,0v.625h1.768a2.5,2.5,0,0,1,1.661.631l4.871,4.33a2.5,2.5,0,0,1,.494.6l4.708,8v0l5.088-1.812a1.238,1.238,0,0,0,.763-1.152Z" transform="translate(-1.514 -5.899)" fill="#cfdd19"/></g></g></svg>