<svg xmlns="http://www.w3.org/2000/svg" xmlns:xlink="http://www.w3.org/1999/xlink" width="35" height="35" viewBox="0 0 35 35"><defs><clipPath id="a"><rect width="35" height="35" transform="translate(28 3452)" fill="#cfdd19"/></clipPath></defs><g transform="translate(-28 -3452)" clip-path="url(#a)"><g transform="translate(28 3452)"><g transform="translate(0)"><path d="M10.493,10.5v2.2a1.413,1.413,0,0,0,.676-.98A1.058,1.058,0,0,0,10.493,10.5Z" transform="translate(-1.312 -1.312)" fill="#cfdd19"/><path d="M8.513,7.089a.708.708,0,0,0,.176.686c.057.045.12.089.187.132V6.477a1.018,1.018,0,0,0-.363.612Z" transform="translate(-1.062 -0.81)" fill="#cfdd19"/><path d="M8.545,0A8.545,8.545,0,1,0,17.09,8.545,8.555,8.555,0,0,0,8.545,0Zm2.661,10.626a2.78,2.78,0,0,1-2.025,2.215v.49a.684.684,0,0,1-1.367,0v-.424a3.31,3.31,0,0,1-1.658-.621A.684.684,0,0,1,6.9,11.141a2.072,2.072,0,0,0,.91.39V8.644a5.042,5.042,0,0,1-1.031-.6,2.046,2.046,0,0,1-.676-2.015A2.3,2.3,0,0,1,7.687,4.221l.127-.036V3.76a.684.684,0,0,1,1.367,0v.35a2.373,2.373,0,0,1,1.36.7.684.684,0,0,1-1.027.9.942.942,0,0,0-.333-.2V7.727c.121.045.243.089.362.131A2.446,2.446,0,0,1,11.206,10.626Z" fill="#cfdd19"/></g><g transform="translate(0 6.289)"><path d="M34.146,16.089l-3.565-.606A10.63,10.63,0,0,0,29,13.566a7.459,7.459,0,0,1,2.664-4.38l.215-.172a1.025,1.025,0,0,0-.641-1.826H28.506a6.521,6.521,0,0,0-5.744,3.477,10.328,10.328,0,0,0-1.092-.059H19.077A10.59,10.59,0,0,1,.947,16.821,10.587,10.587,0,0,0,4.1,29.567v5.306A1.025,1.025,0,0,0,5.127,35.9h4.1a1.025,1.025,0,0,0,.973-.7l1.134-3.4h9.6l1.133,3.4a1.025,1.025,0,0,0,.973.7h4.1a1.025,1.025,0,0,0,1.025-1.025V29.567a10.557,10.557,0,0,0,3.223-4.16l2.973-1.2a1.025,1.025,0,0,0,.64-.95V17.1a1.025,1.025,0,0,0-.854-1.011Zm-8.033,2.378a1.025,1.025,0,1,1,1.025-1.025A1.025,1.025,0,0,1,26.113,18.467Z" transform="translate(0 -7.188)" fill="#cfdd19"/></g></g></g></svg>