<svg xmlns="http://www.w3.org/2000/svg" width="32.999" height="32.999" viewBox="0 0 32.999 32.999"><path d="M0,0H33V33H0Z" fill="none"/><path d="M11.625,17.031C8.407,17.031,2,18.639,2,21.843v2.406H21.249V21.843C21.249,18.639,14.842,17.031,11.625,17.031ZM5.217,21.5a13.257,13.257,0,0,1,6.407-1.719A13.257,13.257,0,0,1,18.032,21.5Zm6.407-6.875A4.812,4.812,0,1,0,6.812,9.812,4.818,4.818,0,0,0,11.625,14.625Zm0-6.875A2.062,2.062,0,1,1,9.562,9.812,2.06,2.06,0,0,1,11.625,7.75Zm9.68,9.363A5.765,5.765,0,0,1,24,21.843v2.406h5.5V21.843C29.5,19.066,24.687,17.485,21.3,17.113Zm-1.43-2.489a4.812,4.812,0,0,0,0-9.625,4.737,4.737,0,0,0-2.062.481,7.509,7.509,0,0,1,0,8.662A4.737,4.737,0,0,0,19.874,14.625Z" transform="translate(0.75 1.875)" fill="#226ed8"/></svg>