<svg xmlns="http://www.w3.org/2000/svg" xmlns:xlink="http://www.w3.org/1999/xlink" width="24.137" height="24.137" viewBox="0 0 24.137 24.137"><defs><clipPath id="a"><rect width="17.07" height="17.07" transform="translate(252 6277.152)" fill="#9a9a9a"/></clipPath></defs><g transform="translate(-4690.458 -4166.923) rotate(-46)" opacity="0.6" clip-path="url(#a)"><g transform="translate(252 6277.018)"><g transform="translate(0 0)"><g transform="translate(9.632)"><path d="M25.82,6.949a2.833,2.833,0,0,0-1.556-1.556A.493.493,0,0,1,24,5.122a.5.5,0,0,1,0-.38L25.792.573a.495.495,0,0,1,.924.039l.5,1.513L30.476.058a.514.514,0,0,1,.679.679L29.087,3.992l1.513.5a.495.495,0,0,1,.039.924L26.47,7.211a.495.495,0,0,1-.651-.262Z" transform="translate(-23.962 0)" fill="#b9dd39"/></g><path d="M27.66,7.193a.5.5,0,0,0,.651.262l4.169-1.79a.495.495,0,0,0-.039-.924l-1.513-.5L33,.981a.469.469,0,0,0-.106-.573l-5.85,5.85a2.918,2.918,0,0,1,.621.935Z" transform="translate(-16.17 -0.244)" fill="#90cc1c"/><g transform="translate(0 4.114)"><path d="M1.774,21.229c-2.481-2.481-2.357-5.338.35-8.044,2.513-2.513,5.885-3.574,8.2-2.581a3.8,3.8,0,0,1,2.079,2.08c.993,2.311-.069,5.682-2.582,8.2C7.112,23.586,4.255,23.71,1.774,21.229Z" transform="translate(0 -10.235)" fill="#ffcd00"/></g><path d="M12.459,22.664c2.513-2.513,3.574-5.885,2.582-8.2a3.894,3.894,0,0,0-.831-1.25L4.414,23.013C6.9,25.494,9.752,25.37,12.459,22.664Z" transform="translate(-2.64 -7.905)" fill="#ffb100"/><g transform="translate(3.378 6.57)"><g transform="translate(0 1.749)"><path d="M8.549,22.937a.493.493,0,0,1-.145-.35v-1.4a.495.495,0,0,1,.989,0v.9h.9a.495.495,0,1,1,0,.989H8.9A.493.493,0,0,1,8.549,22.937Z" transform="translate(-8.404 -20.694)" fill="#ffb100"/></g><g transform="translate(1.749)"><path d="M12.9,18.587a.493.493,0,0,1-.145-.35v-1.4a.495.495,0,0,1,.989,0v.9h.9a.495.495,0,1,1,0,.989h-1.4A.493.493,0,0,1,12.9,18.587Z" transform="translate(-12.755 -16.344)" fill="#ffb100"/></g><g transform="translate(2.798 4.547)"><path d="M15.51,29.9a.493.493,0,0,1-.145-.35v-1.4a.495.495,0,0,1,.989,0v.9h.9a.495.495,0,1,1,0,.989h-1.4A.493.493,0,0,1,15.51,29.9Z" transform="translate(-15.365 -27.654)" fill="#ff9100"/></g><g transform="translate(4.547 2.798)"><path d="M19.86,25.547a.493.493,0,0,1-.145-.35V23.8a.495.495,0,1,1,.989,0v.9h.9a.495.495,0,0,1,0,.989h-1.4a.493.493,0,0,1-.35-.145Z" transform="translate(-19.715 -23.304)" fill="#ff9100"/></g></g></g><g transform="translate(8.275 6.22)"><path d="M20.73,17.717a.493.493,0,0,1-.145-.35v-1.4a.495.495,0,1,1,.989,0v.9h.9a.495.495,0,0,1,0,.989h-1.4A.493.493,0,0,1,20.73,17.717Z" transform="translate(-20.585 -15.474)" fill="#ffb100"/></g><g transform="translate(3.029 11.466)"><path d="M7.679,30.768a.493.493,0,0,1-.145-.35v-1.4a.495.495,0,1,1,.989,0v.9h.9a.495.495,0,1,1,0,.989h-1.4A.493.493,0,0,1,7.679,30.768Z" transform="translate(-7.534 -28.525)" fill="#ffb100"/></g><g transform="translate(3.173 7.619)"><path d="M8.244,32.994h1.4a.495.495,0,0,0,0-.989h-.9l-.844.844A.493.493,0,0,0,8.244,32.994Z" transform="translate(-7.895 -26.759)" fill="#ff9100"/><path d="M21.3,19.943h1.4a.495.495,0,0,0,0-.989h-.9l-.844.844A.493.493,0,0,0,21.3,19.943Z" transform="translate(-15.7 -18.954)" fill="#ff9100"/></g></g></g></svg>