<svg xmlns="http://www.w3.org/2000/svg" width="22.847" height="22.819" viewBox="0 0 22.847 22.819"><path d="M33.274,17.39l-2.056,2.056a.529.529,0,0,1-.759,0L25.5,14.54a.529.529,0,0,1,0-.759l2.056-2.065a2.162,2.162,0,0,1,3.035,0l2.647,2.647a2.126,2.126,0,0,1,.035,3.026Zm-3.82,3.07L24.5,15.5a.529.529,0,0,0-.759,0L12,27.228l-.944,5.426A1.076,1.076,0,0,0,12.3,33.9l5.426-.953L29.454,21.219a.529.529,0,0,0,0-.759ZM17.1,31.6l-2.885.5-1.385-1.385.5-2.885h1.641V29.98h2.144Zm7.226-12.255-6.882,6.873a.626.626,0,0,1-.882-.882l6.882-6.873a.626.626,0,0,1,.882.882Z" transform="translate(-11.042 -11.095)" fill="#226ed8"/></svg>