<svg xmlns="http://www.w3.org/2000/svg" xmlns:xlink="http://www.w3.org/1999/xlink" width="35" height="35" viewBox="0 0 35 35"><defs><clipPath id="a"><rect width="35" height="35" transform="translate(30 3233)" fill="#cfdd19"/></clipPath></defs><g transform="translate(-30 -3233)" clip-path="url(#a)"><g transform="translate(30 3235.903)"><path d="M34.316,9.189,17.841,3.376a1.025,1.025,0,0,0-.682,0L.684,9.189a1.025,1.025,0,0,0,0,1.933l16.475,5.857a1.025,1.025,0,0,0,.687,0l16.475-5.857a1.025,1.025,0,0,0,0-1.933Z" transform="translate(0 -3.318)" fill="#cfdd19"/><path d="M36.745,24.392V15.448l-2.051.729v8.215a2.059,2.059,0,0,0,0,3.571V33a1.025,1.025,0,0,0,2.051,0V27.963a2.059,2.059,0,0,0,0-3.571Z" transform="translate(-4.207 -4.834)" fill="#cfdd19"/><path d="M18.53,20.846a3.068,3.068,0,0,1-1.03-.178L8.238,17.376v4.512c0,1.1,1.152,2.038,3.423,2.775a22.925,22.925,0,0,0,6.869,1,22.926,22.926,0,0,0,6.869-1c2.271-.737,3.423-1.671,3.423-2.775V17.376L19.56,20.668A3.069,3.069,0,0,1,18.53,20.846Z" transform="translate(-1.03 -5.075)" fill="#cfdd19"/></g></g></svg>