<svg xmlns="http://www.w3.org/2000/svg" width="25.651" height="25.651" viewBox="0 0 25.651 25.651"><g transform="translate(-22.98 -22.98)"><path d="M106.776,25.66a.55.55,0,0,0,.55-.55V23.53a.55.55,0,0,0-1.1,0v1.58A.55.55,0,0,0,106.776,25.66Zm8.611,0a.55.55,0,0,0,.55-.55V23.53a.55.55,0,1,0-1.1,0v1.58A.55.55,0,0,0,115.386,25.66Zm1.238,1.7H105.537a2.9,2.9,0,0,0-2.9,2.9V41.349a2.9,2.9,0,0,0,2.9,2.9h11.087a2.9,2.9,0,0,0,2.9-2.9V30.262A2.9,2.9,0,0,0,116.625,27.365Zm-.35,13.084a.55.55,0,0,1-.55.55h-9.286a.55.55,0,0,1-.55-.55V31.162a.55.55,0,0,1,.55-.55h9.286a.55.55,0,0,1,.55.55Z" transform="translate(-75.275)" fill="#226ed8"/><rect width="8.186" height="8.186" transform="translate(31.713 31.713)" fill="#226ed8"/><path d="M31.5,182.781a.55.55,0,0,0-.55.55v1.58a.55.55,0,0,0,1.1,0v-1.58A.55.55,0,0,0,31.5,182.781Zm8.611,0a.55.55,0,0,0-.55.55v1.58a.55.55,0,0,0,1.1,0v-1.58A.55.55,0,0,0,40.111,182.781Zm7.97-15H46.5a.55.55,0,0,0,0,1.1h1.58a.55.55,0,0,0,0-1.1Zm0,8.611H46.5a.55.55,0,0,0,0,1.1h1.58a.55.55,0,1,0,0-1.1ZM25.11,167.78H23.53a.55.55,0,0,0,0,1.1h1.58a.55.55,0,0,0,0-1.1Zm0,8.611H23.53a.55.55,0,1,0,0,1.1h1.58a.55.55,0,1,0,0-1.1Z" transform="translate(0 -136.83)" fill="#226ed8"/></g></svg>