<svg xmlns="http://www.w3.org/2000/svg" width="64.357" height="79.553" viewBox="0 0 64.357 79.553">
  <g id="logo_unect_azul" transform="translate(0 0)">
    <path id="Caminho_2" data-name="Caminho 2" d="M145.151,86.345a14.718,14.718,0,0,0,1.013,5.145,14.187,14.187,0,0,0,1.566,2.869l.969,1.248a16.037,16.037,0,0,0,2.064,1.919l.524.381a15.441,15.441,0,0,0,1.632.992c.219.116.395.176.619.287a14.2,14.2,0,0,0,9.028.911,11.952,11.952,0,0,0,2.649-.881l.86-.407c.124-.069.148-.1.286-.166l1.093-.672c.189-.126.323-.231.5-.36l1.21-1.008a9.961,9.961,0,0,0,.845-.874l.6-.71a14.251,14.251,0,0,0,3.05-8.4V61.093c0-.1-.031-.135-.135-.135h-9.369V80.6a7,7,0,0,1,1.613,2.1,7.143,7.143,0,0,1,.543,4.861,7.279,7.279,0,0,1-.752,1.872l-.817,1.129-.778.76c-.082.069-.14.108-.231.181s-.178.139-.257.194a7.159,7.159,0,0,1-7.28.492l-1.26-.822a7.107,7.107,0,0,1-1.157-9.771,4.835,4.835,0,0,1,.873-.938V51.5h-9.5Zm0,0" transform="translate(-131.257 -51.5)" fill="#f2f3f4" fill-rule="evenodd"/>
    <path id="Caminho_3" data-name="Caminho 3" d="M227.26,613.671h9.413v-2.353h-7.06v-4.524c0-.1.031-.137.137-.137h6.924V604.3H229.75c-.105,0-.137-.031-.137-.135V599.78c0-.105.031-.137.137-.137h6.924V597.29H227.26Zm0,0" transform="translate(-203.864 -534.118)" fill="#f2f3f4" fill-rule="evenodd"/>
    <path id="Caminho_4" data-name="Caminho 4" d="M126,613.409h2.4V601.644a2.372,2.372,0,0,1,.764-1.634l.223-.184a2.339,2.339,0,0,1,3.675,2.09v11.493h2.353v-11.9a4.491,4.491,0,0,0-.407-1.765,5.861,5.861,0,0,0-.916-1.3,2.106,2.106,0,0,0-.287-.255c-.127-.1-.167-.168-.289-.255a5.579,5.579,0,0,0-.694-.436,4.656,4.656,0,0,0-4.42.116v-.588H126Zm0,0" transform="translate(-114.324 -533.856)" fill="#f2f3f4" fill-rule="evenodd"/>
    <path id="Caminho_5" data-name="Caminho 5" d="M25.12,609.01a4.231,4.231,0,0,0,.8,2.6.615.615,0,0,0,.116.155l.251.293c.073.078.083.108.142.175l.287.256a4.262,4.262,0,0,0,3.382,1.188A4.749,4.749,0,0,0,34.43,609.9a6.083,6.083,0,0,0,.1-1.074V597.29h-2.4v11.857A2.115,2.115,0,0,1,31.9,610a2.318,2.318,0,0,1-4.283-.267,4.39,4.39,0,0,1-.14-1.173V597.29H25.12Zm0,0" transform="translate(-25.12 -534.118)" fill="#f2f3f4" fill-rule="evenodd"/>
    <path id="Caminho_6" data-name="Caminho 6" d="M328.076,602.27v6.154a5.05,5.05,0,0,0,.706,2.87l.381.524a4.592,4.592,0,0,0,3.394,1.719,4.382,4.382,0,0,0,3.225-1.074,5.234,5.234,0,0,0,1.257-1.55,4.33,4.33,0,0,0,.451-2.083h-2.353a2.711,2.711,0,0,1-.309,1.14l-.4.5a2.215,2.215,0,0,1-3.258.022,1.736,1.736,0,0,1-.276-.314,2.243,2.243,0,0,1-.414-1.35v-6.924a2.228,2.228,0,0,1,1.341-2.188,2.352,2.352,0,0,1,3.32,2.142h2.353a4.472,4.472,0,0,0-1.079-3.039,5.269,5.269,0,0,0-1.524-1.2,3.914,3.914,0,0,0-.772-.314,4.849,4.849,0,0,0-3.926.608,4.716,4.716,0,0,0-1.433,1.5,3.9,3.9,0,0,0-.388.788,6.017,6.017,0,0,0-.3,2.054Zm0,0" transform="translate(-293.004 -533.984)" fill="#f2f3f4" fill-rule="evenodd"/>
    <path id="Caminho_7" data-name="Caminho 7" d="M429.4,599.643h3.394c.1,0,.135.031.135.137v13.889h2.354V599.643h3.529V597.29H429.4Zm0,0" transform="translate(-382.607 -534.118)" fill="#f2f3f4" fill-rule="evenodd"/>
    <path id="Caminho_8" data-name="Caminho 8" d="M241,323.654a2.976,2.976,0,0,0,.75,2.372,3.256,3.256,0,0,0,1.074.826l.527.2a3.212,3.212,0,1,0-1.435-5.376A3.079,3.079,0,0,0,241,323.654Zm0,0" transform="translate(-216.013 -289.579)" fill="#f2f3f4" fill-rule="evenodd"/>
    <path id="Caminho_9" data-name="Caminho 9" d="M559.822,599.236h-.678v-1.266h.723a.647.647,0,0,1,.543.678A.661.661,0,0,1,559.822,599.236ZM561.1,600.5v1.358h-.679c0-1.852.152-1.946-1.266-1.946v1.946h-.679V597.29h1.538a1.325,1.325,0,0,1,1.087,1.177c0,.644-.05.6-.407,1.131A1.226,1.226,0,0,1,561.1,600.5Zm0,0" transform="translate(-496.738 -534.118)" fill="#f2f3f4" fill-rule="evenodd"/>
    <path id="Caminho_10" data-name="Caminho 10" d="M530.9,597.969h1.313V600.5a.634.634,0,1,1-1.266.045h-.679a1.267,1.267,0,0,0,1.132,1.313,1.3,1.3,0,0,0,.688-.081l.456-.314a1.369,1.369,0,0,0,.347-.873v-3.3H530.9Zm0,0" transform="translate(-471.802 -534.118)" fill="#f2f3f4" fill-rule="evenodd"/>
  </g>
</svg>
