<svg xmlns="http://www.w3.org/2000/svg" xmlns:xlink="http://www.w3.org/1999/xlink" width="30" height="30" viewBox="0 0 30 30"><defs><clipPath id="a"><rect width="30" height="30" transform="translate(88 6554)" fill="#f2f3f4"/></clipPath></defs><g transform="translate(-88 -6554)" clip-path="url(#a)"><path d="M28.344,0H1.655A1.656,1.656,0,0,0,0,1.656V28.345A1.656,1.656,0,0,0,1.656,30H16.025V18.4h-3.9V13.857h3.9V10.516c0-3.875,2.366-5.985,5.823-5.985a32.057,32.057,0,0,1,3.493.179V8.76H22.958c-1.881,0-2.245.894-2.245,2.206v2.892h4.5L24.624,18.4H20.713V30h7.631A1.656,1.656,0,0,0,30,28.345h0V1.655A1.656,1.656,0,0,0,28.344,0Zm0,0" transform="translate(88 6554)" fill="#f2f3f4"/></g></svg>