<svg xmlns="http://www.w3.org/2000/svg" xmlns:xlink="http://www.w3.org/1999/xlink" width="30" height="30" viewBox="0 0 30 30">
  <defs>
    <clipPath id="clip-path">
      <rect id="Rectangle_137" data-name="Rectangle 137" width="30" height="30" transform="translate(238 6554)" fill="#226ed8"/>
    </clipPath>
  </defs>
  <g id="Mask_Group_7" data-name="Mask Group 7" transform="translate(-238 -6554)" clip-path="url(#clip-path)">
    <g id="linkedin" transform="translate(238 6554.663)">
      <path id="Path_109" data-name="Path 109" d="M3.638-.047a3.352,3.352,0,1,0-.084,6.686H3.6A3.353,3.353,0,1,0,3.638-.047Zm0,0" transform="translate(0 0.047)" fill="#226ed8"/>
      <path id="Path_110" data-name="Path 110" d="M.57,13.944H7V33.292H.57Zm0,0" transform="translate(-0.19 -4.617)" fill="#226ed8"/>
      <path id="Path_111" data-name="Path 111" d="M27.781,13.263c-3.469,0-5.8,3.26-5.8,3.26V13.717H15.554V33.065h6.431V22.26a4.407,4.407,0,0,1,.212-1.57,3.52,3.52,0,0,1,3.3-2.352c2.327,0,3.258,1.774,3.258,4.375V33.065h6.43V21.971c0-5.943-3.173-8.708-7.4-8.708Zm0,0" transform="translate(-5.185 -4.39)" fill="#226ed8"/>
    </g>
  </g>
</svg>
