<svg xmlns="http://www.w3.org/2000/svg" xmlns:xlink="http://www.w3.org/1999/xlink" width="30" height="30" viewBox="0 0 30 30"><defs><clipPath id="a"><rect width="30" height="30" transform="translate(163 6554)" fill="#f2f3f4"/></clipPath></defs><g transform="translate(-163 -6554)" clip-path="url(#a)"><g transform="translate(163.003 6554)"><path d="M29.957,8.82a10.962,10.962,0,0,0-.7-3.639A7.685,7.685,0,0,0,24.87.791a10.99,10.99,0,0,0-3.639-.7C19.625.018,19.115,0,15.042,0S10.46.018,8.86.088a10.965,10.965,0,0,0-3.639.7A7.32,7.32,0,0,0,2.559,2.52,7.386,7.386,0,0,0,.831,5.175a10.991,10.991,0,0,0-.7,3.639C.057,10.42.039,10.93.039,15s.018,4.583.088,6.183a10.962,10.962,0,0,0,.7,3.639,7.684,7.684,0,0,0,4.389,4.389,10.992,10.992,0,0,0,3.639.7c1.6.071,2.11.088,6.183.088s4.583-.017,6.183-.088a10.959,10.959,0,0,0,3.639-.7,7.673,7.673,0,0,0,4.39-4.389,11,11,0,0,0,.7-3.639c.07-1.6.088-2.11.088-6.183s-.006-4.583-.076-6.183Zm-2.7,12.249a8.223,8.223,0,0,1-.516,2.784A4.976,4.976,0,0,1,23.892,26.7a8.252,8.252,0,0,1-2.784.516c-1.582.071-2.057.088-6.06.088s-4.483-.017-6.06-.088A8.218,8.218,0,0,1,6.2,26.7a4.616,4.616,0,0,1-1.723-1.119,4.664,4.664,0,0,1-1.119-1.723,8.253,8.253,0,0,1-.516-2.784c-.071-1.582-.088-2.057-.088-6.06s.017-4.483.088-6.06a8.219,8.219,0,0,1,.516-2.784A4.56,4.56,0,0,1,4.488,4.448,4.657,4.657,0,0,1,6.211,3.329a8.258,8.258,0,0,1,2.784-.516c1.582-.07,2.057-.088,6.06-.088s4.483.018,6.06.088a8.223,8.223,0,0,1,2.784.516,4.613,4.613,0,0,1,1.723,1.119A4.663,4.663,0,0,1,26.74,6.171a8.256,8.256,0,0,1,.516,2.784c.07,1.582.088,2.057.088,6.06s-.018,4.472-.088,6.054Zm0,0" transform="translate(-0.039 0)" fill="#f2f3f4"/><path d="M18.691,10.945A7.707,7.707,0,1,0,26.4,18.651,7.709,7.709,0,0,0,18.691,10.945Zm0,12.706a5,5,0,1,1,5-5,5,5,0,0,1-5,5Zm0,0" transform="translate(-3.688 -3.648)" fill="#f2f3f4"/><path d="M35.461,9.588a1.8,1.8,0,1,1-1.8-1.8,1.8,1.8,0,0,1,1.8,1.8Zm0,0" transform="translate(-10.647 -2.596)" fill="#f2f3f4"/></g></g></svg>