<svg xmlns="http://www.w3.org/2000/svg" xmlns:xlink="http://www.w3.org/1999/xlink" width="30" height="30" viewBox="0 0 30 30"><defs><clipPath id="a"><rect width="30" height="30" transform="translate(238 6554)" fill="#f2f3f4"/></clipPath></defs><g transform="translate(-238 -6554)" clip-path="url(#a)"><g transform="translate(238 6554.663)"><path d="M3.638-.047a3.352,3.352,0,1,0-.084,6.686H3.6A3.353,3.353,0,1,0,3.638-.047Zm0,0" transform="translate(0 0.047)" fill="#f2f3f4"/><path d="M.57,13.944H7V33.292H.57Zm0,0" transform="translate(-0.19 -4.617)" fill="#f2f3f4"/><path d="M27.781,13.263c-3.469,0-5.8,3.26-5.8,3.26V13.717H15.554V33.065h6.431V22.26a4.407,4.407,0,0,1,.212-1.57,3.52,3.52,0,0,1,3.3-2.352c2.327,0,3.258,1.774,3.258,4.375V33.065h6.43V21.971c0-5.943-3.173-8.708-7.4-8.708Zm0,0" transform="translate(-5.185 -4.39)" fill="#f2f3f4"/></g></g></svg>