<svg xmlns="http://www.w3.org/2000/svg" xmlns:xlink="http://www.w3.org/1999/xlink" width="74" height="24" viewBox="0 0 74 24">
  <defs>
    <clipPath id="clip-path">
      <rect id="Ret칙ngulo_144" data-name="Ret칙ngulo 144" width="15" height="15" transform="translate(335 38)" fill="#f2f3f4"/>
    </clipPath>
  </defs>
  <g id="voltar" transform="translate(-276 -30)">
    <text id="Voltar-2" data-name="Voltar" transform="translate(276 50)" fill="#fdfdfd" font-size="20" font-family="Lato-Regular, Lato" opacity="0.8"><tspan x="0" y="0">Voltar</tspan></text>
    <g id="Grupo_de_m치scara_11" data-name="Grupo de m치scara 11" transform="translate(0 -3)" opacity="0.8" clip-path="url(#clip-path)">
      <g id="close" transform="translate(334.998 38)">
        <path id="Caminho_122" data-name="Caminho 122" d="M.773,15a.772.772,0,0,1-.545-1.318L13.684.226a.772.772,0,0,1,1.091,1.092L1.319,14.774A.774.774,0,0,1,.773,15Zm0,0" fill="#f2f3f4"/>
        <path id="Caminho_123" data-name="Caminho 123" d="M14.23,15a.766.766,0,0,1-.545-.226L.228,1.318A.772.772,0,1,1,1.319.226L14.775,13.682A.772.772,0,0,1,14.23,15Zm0,0" fill="#f2f3f4"/>
      </g>
    </g>
  </g>
</svg>
